<svg xmlns="http://www.w3.org/2000/svg" width="128" height="128" viewBox="0 0 128 128" version="1.1"><path d="M 0 64.007 L 0 128.015 64.250 127.757 L 128.500 127.500 128.757 63.750 L 129.015 0 64.507 0 L 0 0 0 64.007 M 0.471 64.500 C 0.471 99.700, 0.597 113.955, 0.750 96.178 C 0.903 78.400, 0.903 49.600, 0.749 32.178 C 0.596 14.755, 0.471 29.300, 0.471 64.500 M 16 12 L 16 16 12 16 L 8 16 8 24 L 8 32 12 32 L 16 32 16 24 L 16 16 20 16 L 24 16 24 20 L 24 24 28 24 L 32 24 32 44 L 32 64 28 64 L 24 64 24 72 L 24 80 20 80 L 16 80 16 88 L 16 96 12 96 L 8 96 8 104 L 8 112 12 112 L 16 112 16 116 L 16 120 24 120 L 32 120 32 116 L 32 112 36 112 L 40 112 40 108 L 40 104 44 104 L 48 104 48 108 L 48 112 52 112 L 56 112 56 108 L 56 104 64 104 L 72 104 72 108 L 72 112 76 112 L 80 112 80 108 L 80 104 84 104 L 88 104 88 108 L 88 112 100 112 L 112 112 112 108 L 112 104 116 104 L 120 104 120 100 L 120 96 112 96 L 104 96 104 88 L 104 80 108 80 L 112 80 112 72 L 112 64 116 64 L 120 64 120 44 L 120 24 116 24 L 112 24 112 20 L 112 16 108 16 L 104 16 104 12 L 104 8 60 8 L 16 8 16 12 M 48 36 L 48 40 52 40 L 56 40 56 36 L 56 32 52 32 L 48 32 48 36 M 64 36 L 64 40 68 40 L 72 40 72 36 L 72 32 68 32 L 64 32 64 36 M 80 36 L 80 40 92 40 L 104 40 104 36 L 104 32 92 32 L 80 32 80 36 M 48 52 L 48 56 56 56 L 64 56 64 52 L 64 48 56 48 L 48 48 48 52 M 72 52 L 72 56 80 56 L 88 56 88 52 L 88 48 80 48 L 72 48 72 52 M 96 52 L 96 56 100 56 L 104 56 104 52 L 104 48 100 48 L 96 48 96 52 M 40 68 L 40 72 44 72 L 48 72 48 68 L 48 64 44 64 L 40 64 40 68 M 56 68 L 56 72 64 72 L 72 72 72 68 L 72 64 64 64 L 56 64 56 68 M 80 68 L 80 72 88 72 L 96 72 96 68 L 96 64 88 64 L 80 64 80 68 M 40 84 L 40 88 48 88 L 56 88 56 84 L 56 80 48 80 L 40 80 40 84 M 64 84 L 64 88 68 88 L 72 88 72 84 L 72 80 68 80 L 64 80 64 84 M 80 84 L 80 88 84 88 L 88 88 88 84 L 88 80 84 80 L 80 80 80 84" stroke="none" fill="#261d36" fill-rule="evenodd"/><path d="M 16 12 L 16 16 12 16 L 8 16 8 24 L 8 32 12 32 L 16 32 16 24 L 16 16 20 16 L 24 16 24 20 L 24 24 28 24 L 32 24 32 44 L 32 64 28 64 L 24 64 24 72 L 24 80 20 80 L 16 80 16 88 L 16 96 12 96 L 8 96 8 104 L 8 112 12 112 L 16 112 16 116 L 16 120 24 120 L 32 120 32 116 L 32 112 36 112 L 40 112 40 108 L 40 104 44 104 L 48 104 48 108 L 48 112 52 112 L 56 112 56 108 L 56 104 64 104 L 72 104 72 108 L 72 112 76 112 L 80 112 80 108 L 80 104 84 104 L 88 104 88 108 L 88 112 100 112 L 112 112 112 108 L 112 104 116 104 L 120 104 120 100 L 120 96 112 96 L 104 96 104 88 L 104 80 108 80 L 112 80 112 72 L 112 64 116 64 L 120 64 120 44 L 120 24 116 24 L 112 24 112 20 L 112 16 108 16 L 104 16 104 12 L 104 8 60 8 L 16 8 16 12 M 48 36 L 48 40 52 40 L 56 40 56 36 L 56 32 52 32 L 48 32 48 36 M 64 36 L 64 40 68 40 L 72 40 72 36 L 72 32 68 32 L 64 32 64 36 M 80 36 L 80 40 92 40 L 104 40 104 36 L 104 32 92 32 L 80 32 80 36 M 48 52 L 48 56 56 56 L 64 56 64 52 L 64 48 56 48 L 48 48 48 52 M 72 52 L 72 56 80 56 L 88 56 88 52 L 88 48 80 48 L 72 48 72 52 M 96 52 L 96 56 100 56 L 104 56 104 52 L 104 48 100 48 L 96 48 96 52 M 40 68 L 40 72 44 72 L 48 72 48 68 L 48 64 44 64 L 40 64 40 68 M 56 68 L 56 72 64 72 L 72 72 72 68 L 72 64 64 64 L 56 64 56 68 M 80 68 L 80 72 88 72 L 96 72 96 68 L 96 64 88 64 L 80 64 80 68 M 40 84 L 40 88 48 88 L 56 88 56 84 L 56 80 48 80 L 40 80 40 84 M 64 84 L 64 88 68 88 L 72 88 72 84 L 72 80 68 80 L 64 80 64 84 M 80 84 L 80 88 84 88 L 88 88 88 84 L 88 80 84 80 L 80 80 80 84" stroke="none" fill="#7e7766" fill-rule="evenodd"/></svg>